<?xml version="1.0" standalone="no"?>
<!DOCTYPE svg PUBLIC "-//W3C//DTD SVG 1.1//EN" "http://www.w3.org/Graphics/SVG/1.1/DTD/svg11.dtd" >
<svg xmlns="http://www.w3.org/2000/svg">
<metadata>
Created by FontForge 20120731 at Wed Sep 28 10:16:59 2016
 By admin
</metadata>
<defs>
<font id="mbar-font" horiz-adv-x="1024" >
  <font-face 
    font-family="mbar-font"
    font-weight="500"
    font-stretch="normal"
    units-per-em="1024"
    panose-1="2 0 6 3 0 0 0 0 0 0"
    ascent="896"
    descent="-128"
    x-height="792"
    bbox="0 -124 1024 911"
    underline-thickness="50"
    underline-position="-100"
    unicode-range="U+0078-E624"
  />
<missing-glyph horiz-adv-x="374" 
d="M34 0v682h272v-682h-272zM68 34h204v614h-204v-614z" />
    <glyph glyph-name=".notdef" horiz-adv-x="374" 
d="M34 0v682h272v-682h-272zM68 34h204v614h-204v-614z" />
    <glyph glyph-name=".null" horiz-adv-x="0" 
 />
    <glyph glyph-name="nonmarkingreturn" horiz-adv-x="341" 
 />
    <glyph glyph-name="x" unicode="x" horiz-adv-x="1001" 
d="M281 543q-27 -1 -53 -1h-83q-18 0 -36.5 -6t-32.5 -18.5t-23 -32t-9 -45.5v-76h912v41q0 16 -0.5 30t-0.5 18q0 13 -5 29t-17 29.5t-31.5 22.5t-49.5 9h-133v-97h-438v97zM955 310v-52q0 -23 0.5 -52t0.5 -58t-10.5 -47.5t-26 -30t-33 -16t-31.5 -4.5q-14 -1 -29.5 -0.5
t-29.5 0.5h-32l-45 128h-439l-44 -128h-29h-34q-20 0 -45 1q-25 0 -41 9.5t-25.5 23t-13.5 29.5t-4 30v167h911zM163 247q-12 0 -21 -8.5t-9 -21.5t9 -21.5t21 -8.5q13 0 22 8.5t9 21.5t-9 21.5t-22 8.5zM316 123q-8 -26 -14 -48q-5 -19 -10.5 -37t-7.5 -25t-3 -15t1 -14.5
t9.5 -10.5t21.5 -4h37h67h81h80h64h36q23 0 34 12t2 38q-5 13 -9.5 30.5t-9.5 34.5q-5 19 -11 39h-368zM336 498v228q0 11 2.5 23t10 21.5t20.5 15.5t34 6h188q31 0 51.5 -14.5t20.5 -52.5v-227h-327z" />
    <glyph glyph-name="uniE600" unicode="&#xe600;" horiz-adv-x="1000" 
d="M521 634q33 41 70 74q32 27 72.5 49t84.5 19q62 -5 103.5 -29.5t66 -62t33.5 -85t6 -97.5t-17.5 -95.5t-36 -85t-47.5 -73t-52 -60.5q-40 -41 -83.5 -76.5t-83 -61t-72 -40.5t-50.5 -15q-20 -1 -51 14t-68 40.5t-78 60.5t-81 74q-26 25 -56 58t-56.5 72.5t-45.5 85.5
t-21 98t11 97.5t39 81.5t64 60.5t86 34.5q24 5 48 1.5t47 -12t44 -21.5t40 -27q44 -33 84 -79z" />
    <glyph glyph-name="uniE601" unicode="&#xe601;" horiz-adv-x="1000" 
d="M866 395l-479 516h-221l479 -516l-479 -479h221z" />
    <glyph glyph-name="uniE602" unicode="&#xe602;" horiz-adv-x="1000" 
d="M645 -84h221l-479 479l479 516h-221l-479 -516z" />
    <glyph glyph-name="uniE603" unicode="&#xe603;" 
d="M324 384q0 -78 55 -133.5t133 -55.5t133.5 55.5t55.5 133.5t-55.5 133t-133.5 55t-133 -55t-55 -133z" />
    <glyph glyph-name="uniE604" unicode="&#xe604;" 
d="M16 880zM16 372.5q0 -100.5 39 -193t105.5 -159t158.5 -105.5t193 -39t193 39t158.5 105.5t105.5 159t39 193t-39 192.5t-105.5 158.5t-158.5 106t-193 39.5t-193 -39.5t-158.5 -106t-105.5 -158.5t-39 -192.5z" />
    <glyph glyph-name="uniE605" unicode="&#xe605;" 
d="M847 631q9 -8 8 -21.5t-11 -25.5l-345 -406q-10 -11 -23.5 -14t-22.5 5q-9 7 -8.5 21t10.5 26l346 405q10 12 23.5 15t22.5 -5zM216 467q9 7 22 4.5t23 -14.5l219 -242q10 -12 11.5 -25.5t-7.5 -20.5q-8 -8 -21 -5t-24 14l-219 244q-10 11 -11 24t7 21z" />
    <glyph glyph-name="uniE606" unicode="&#xe606;" 
d="M949 370l-446 446h-1v1q-12 15 -30 15h-369q-16 0 -27.5 -11.5t-11.5 -27.5v-369q0 -19 15 -30h1v-1l446 -446q11 -11 27 -11t27 11l369 369q11 11 11 27t-11 27zM219 754q24 0 41 -17t17 -41t-17 -41t-41 -17t-41 17t-17 41t17 41t41 17z" />
    <glyph glyph-name="uniE607" unicode="&#xe607;" 
d="M512 740l114 -232l256 -37l-185 -180l44 -255l-229 120l-229 -120l44 255l-185 180l256 37z" />
    <glyph glyph-name="uniE608" unicode="&#xe608;" 
d="M574 397l289 280q10 10 10 24.5t-10.5 24.5t-25 10t-25.5 -10l-289 -280l-289 280q-10 10 -25 10t-25.5 -10t-10.5 -24.5t10 -24.5l289 -280l-289 -280q-10 -10 -10 -24.5t10.5 -24.5t25.5 -10t25 10l289 280l289 -280q11 -10 25.5 -10t25 10t10.5 24.5t-10 24.5z" />
    <glyph glyph-name="uniE609" unicode="&#xe609;" horiz-adv-x="1000" 
d="M834 174l-306 302l-306 -302q-14 -14 -32 -21t-36.5 -7t-36 7t-31.5 21q-29 28 -29 67t29 67l368 365q14 14 33.5 22t39.5 9t38.5 -5t30.5 -20l374 -371q28 -28 28 -67t-28 -67q-14 -14 -32 -21t-36.5 -7t-36 7t-31.5 21z" />
    <glyph glyph-name="uniE60A" unicode="&#xe60a;" horiz-adv-x="1000" 
d="M837 677q28 28 67.5 28t67.5 -28q29 -28 29 -67t-29 -67l-374 -372q-12 -14 -30 -19.5t-38 -4.5t-39.5 8.5t-33.5 21.5l-368 366q-29 28 -29 67t29 67q14 14 31.5 21t36 7t36.5 -7t32 -21l306 -302z" />
    <glyph glyph-name="uniE60B" unicode="&#xe60b;" horiz-adv-x="1000" 
d="M295 853h125v-125h-125v125zM420 728h125v-125h-125v125zM545 603h124v-124h-124v124zM669 479h125v-125h-125v125zM545 354h124v-125h-124v125zM420 229h125v-125h-125v125zM295 97v-117v-8h125v8v117v7h-125v-7z" />
    <glyph glyph-name="uniE60C" unicode="&#xe60c;" 
d="M513 879q-101 0 -193 -39t-158.5 -105.5t-105.5 -158.5t-39 -193t39 -193t105.5 -158t158.5 -105.5t193 -39.5t193 39.5t158 105.5t105.5 158t39.5 193t-39.5 193t-105.5 158.5t-158 105.5t-193 39zM513 -60q-90 0 -172 35t-141.5 94.5t-94.5 141.5t-35 172t35 172
t94.5 141.5t141.5 94.5t172 35t172 -35t141.5 -94.5t94.5 -141.5t35 -172t-35 -172t-94.5 -141.5t-141.5 -94.5t-172 -35zM293 444l-73 -73l231 -232l337 337l-76 76l-264 -264z" />
    <glyph glyph-name="uniE60D" unicode="&#xe60d;" horiz-adv-x="1000" 
d="M720 778q11 10 11 25t-10.5 25.5t-25 10.5t-25.5 -11l-403 -407q-11 -11 -11 -25.5t11 -25.5l403 -408q11 -10 25.5 -10t25 10.5t10.5 25t-11 25.5l-368 382z" />
    <glyph glyph-name="uniE60E" unicode="&#xe60e;" horiz-adv-x="1000" 
d="M290 13q-10 -11 -10 -25.5t10.5 -25t25 -10.5t24.5 10l404 408q10 11 10 25.5t-10 25.5l-404 407q-10 11 -25 11t-25 -10.5t-10 -25.5t10 -25l368 -383z" />
    <glyph glyph-name="uniE60F" unicode="&#xe60f;" horiz-adv-x="1000" 
d="M915 385l-5 7q-3 5 -12.5 16.5t-19 20.5t-23.5 16t-27 7t-27 -7t-25.5 -17.5t-21 -20.5t-14.5 -17l-5 -7q-2 2 -5 7t-13.5 17t-20.5 21.5t-24.5 16.5t-28.5 7q-47 -1 -77 -63v-265q-4 -45 -12 -68q-8 -25 -30 -45q-22 -19 -45 -27q-19 -6 -51 -6q-28 0 -50.5 8.5
t-38 24.5t-24 38.5t-8.5 58.5v25h73q0 -63 8 -75q13 -17 40 -18q8 -1 15 1t11 4l4 2q11 11 14 20l4 21q2 22 2 34v272q-2 2 -10.5 12.5t-14.5 17t-15.5 14.5t-19.5 12t-21 3q-24 0 -48.5 -17.5t-36.5 -33.5l-13 -17q-6 7 -16 18.5t-34.5 30.5t-40.5 19t-38.5 -17t-36.5 -34
l-14 -17v20q0 13 5.5 51t16.5 73t36.5 79t60.5 77.5t94.5 60t133.5 33.5l52 73l50 -73q60 -3 110.5 -19t84.5 -39t61 -54t43 -61t26.5 -64.5t14.5 -59.5t6 -50.5t1.5 -34t-0.5 -12.5z" />
    <glyph glyph-name="uniE610" unicode="&#xe610;" horiz-adv-x="1000" 
d="M829 -21h-271v279h334v-216q0 -26 -18.5 -44.5t-44.5 -18.5zM558 585q-31 8 -39 16l-1 1v0q-1 -1 -2 -1q-12 -12 -27 -16v-258h-351v222q0 26 18.5 44.5t44.5 18.5h147q-26 15 -45 33q-44 41 -51 92.5t27 83.5q29 27 74 27q64 0 116 -49q30 -28 49 -67q19 40 49 67
q52 49 116 49q45 0 73 -27q35 -32 28 -83.5t-51 -92.5q-19 -18 -45 -33h141q26 0 44.5 -18.5t18.5 -44.5v-222h-334v258zM425 752q-34 31 -72 31q-20 0 -29 -9q-8 -7 -8 -21q0 -32 31 -61q22 -20 53 -33.5t56 -13.5q14 0 17 3q5 11 -8 45t-40 59zM564 647l2 -1q2 0 5.5 -0.5
t7.5 -0.5q26 0 57 13.5t53 33.5q31 29 31 61q0 14 -8 21q-10 9 -29 9q-38 0 -72 -31q-27 -25 -39.5 -59t-7.5 -46zM489 -21h-288q-26 0 -44.5 18.5t-18.5 44.5v216h351v-279z" />
    <glyph glyph-name="uniE611" unicode="&#xe611;" horiz-adv-x="1000" 
d="M724 180q1 4 5 16t5 17.5t4 26t1.5 40t-1.5 59.5q58 57 100 129.5t62 130t31 118.5t12.5 85.5t1.5 40.5h1h-1v0q-16 0 -40.5 -1.5t-85.5 -12.5t-118.5 -31t-130 -62.5t-129.5 -99.5q-40 0 -59.5 1.5t-40 -1.5t-26 -4t-17.5 -5t-16 -5q-38 -11 -111 -87.5t-82 -113.5
q-5 -16 0 -28t17 -17.5t21 -8t19 -3.5q5 0 37 1.5t59 1t31 -6.5q16 -11 17 -40q0 -23 10 -50t26 -45v-1v0h1q18 -16 45 -26t50 -11q13 0 23 -4t13 -8l4 -4q6 -4 6.5 -31t-1 -59t-1.5 -37q1 -10 3.5 -19t8 -21t17.5 -17t28 -1q37 10 113.5 83t87.5 111zM582 480
q-29 29 -29 70.5t29 70.5t70.5 29t71 -29t29.5 -70.5t-29.5 -70.5t-71 -29t-70.5 29zM350 145q-42 6 -70 34t-34 70q-3 20 -13.5 30t-24.5 8q-13 -2 -44.5 -36.5t-34.5 -51.5q-2 -9 5.5 -12.5t20.5 -6t19 -8.5q20 -17 -14 -85q-12 -23 -4 -32q9 -8 33 4q67 34 85 14
q6 -6 8 -19t5.5 -20.5t13.5 -5.5q16 2 50.5 33.5t36.5 45.5q2 13 -8 23.5t-30 14.5z" />
    <glyph glyph-name="uniE612" unicode="&#xe612;" horiz-adv-x="1000" 
d="M514 10l-156 263q-170 -65 -228 -105q-17 -11 -31.5 -31.5t-24 -41.5t-16.5 -41t-10 -32l-3 -13h940q-1 4 -2.5 12t-8 30t-15.5 41.5t-25 41t-35 34.5q-59 40 -228 105zM514 221l-52 -53l26 -52l-78 -106h209l-79 106l26 52zM520 824q37 0 68 -6.5t53.5 -16.5t40 -26.5
t29 -32t19.5 -38.5t11.5 -39t5.5 -41.5t2.5 -38.5t0.5 -36q0 -38 -17 -85.5t-46 -92t-73.5 -74.5t-93.5 -30t-94 30t-73.5 74.5t-45.5 92t-17 85.5v36q0 13 2.5 38.5t6 41.5t11.5 39t19.5 38.5t29 32t40 26.5t53.5 16.5t68 6.5z" />
    <glyph glyph-name="uniE613" unicode="&#xe613;" 
d="M876 -63h-730q-9 0 -15 6t-6 15v565h311v-228l152 -78v306h309v-565q0 -9 -6 -15t-15 -6zM563 608v225h182l141 -225h-323zM457 608h-323l141 225h182v-225z" />
    <glyph glyph-name="uniE614" unicode="&#xe614;" 
d="M752 53h-510q-25 0 -42 -19t-17 -47t17 -47.5t42 -19.5h510q25 0 42 19.5t17 47.5t-17 47t-42 19zM987 650q-6 6 -13 11q-28 19 -61 19q-44 0 -75.5 -31t-31.5 -76q0 -54 44 -86q-15 -18 -32.5 -36t-45 -37.5t-42.5 -15.5q-18 5 -31 39.5t-19.5 82.5t-9 74t-3.5 45
q39 6 64.5 36t25.5 69q0 45 -31 76t-75.5 31t-75.5 -31t-31 -76q0 -30 15 -55t41 -39q-7 -17 -15.5 -36t-22 -46t-28.5 -44t-26 -17q-12 0 -26.5 18t-28.5 46t-22 46t-14 35q24 14 38.5 38.5t14.5 53.5q0 45 -31 76t-75.5 31t-75.5 -31t-31 -76q0 -34 20 -62t52 -39
q10 -4 20 -5q-1 -9 -2.5 -23.5t-7.5 -53.5t-13.5 -69t-19.5 -56t-26 -29q-18 -5 -43.5 12t-40.5 33.5t-27 33.5q45 32 45 87q0 45 -31.5 76t-75.5 31q-13 0 -26 -3q-49 -5 -68 -53q-13 -24 -13 -51q0 -36 22 -64q12 -18 31 -28q25 -14 54 -14q7 0 16 1q4 -28 10.5 -65
t20.5 -103t34 -109.5t42 -44.5q24 -1 548 -1q20 0 39.5 32.5t34 78t26 92.5t17.5 78t6 32l1 9h11q28 0 53 14q33 11 43 46q11 22 11 46q0 46 -33 77z" />
    <glyph glyph-name="uniE615" unicode="&#xe615;" 
d="M65 40q0 -42 23.5 -71.5t57.5 -29.5h734q33 0 56.5 29.5t23.5 71.5v461h-895v-461zM880 832h-735q-33 0 -56.5 -30t-23.5 -71v-113h895v113q0 41 -23.5 71t-56.5 30zM385 210q0 -13 -10 -13h-110q-10 0 -10 13v5q0 13 10 13h110q10 0 10 -13v-5zM578 210q0 -13 -10 -13
h-110q-10 0 -10 13v5q0 13 10 13h110q10 0 10 -13v-5zM770 210q0 -13 -10 -13h-110q-10 0 -10 13v5q0 13 10 13h110q10 0 10 -13v-5z" />
    <glyph glyph-name="uniE616" unicode="&#xe616;" 
d="M488.5 746q14.5 0 31 -4.5t36 -14.5t32.5 -31.5t13 -50.5h36q0 35 -14.5 63t-37.5 43t-48 22.5t-49 7.5t-48.5 -7.5t-47.5 -22.5t-37.5 -43t-14.5 -63h36q0 29 13 50.5t32 31.5t36 14.5t31.5 4.5zM709 219l10 -10v40h-4q-2 -16 -6 -30zM699.5 366q-56.5 0 -96 -39
t-39.5 -94t39.5 -94t96 -39t96 39t39.5 94t-39.5 94t-96 39zM737 293q8 -8 15 -18l-12 -8q-5 10 -14 19zM634 222l-15 1q7 20 6 42l13 -1q-2 -22 -4 -42zM780 127l-36 35h-3q-10 0 -14.5 1t-6 3.5t-1.5 9.5v11l-16 15q-1 -2 -1 -3q-9 -21 -29 -40q-5 7 -13 9q16 11 28 33
q3 6 5 11l-35 35v-63q0 -12 1 -26h-16q1 12 1 27v75l-52 51l11 11l41 -40q0 12 -1 18q7 -2 17 -2h2q1 0 1 -1t-2 -2q-3 -2 -3 -9v-17l9 -9q-3 7 -6 12l11 5q6 -10 8 -18l-8 -4l26 -26q2 10 3 19q-16 -1 -18 -1v15q7 -1 19 -1q1 14 1 23.5t-1 16.5q5 -2 17 -2q2 0 2 -0.5
t-1.5 -1.5t-2 -4t-0.5 -13l-2 -20q23 0 31 0.5t15 1.5v-15q-9 1 -30 2v-52l19 -19l1 1q1 4 2 12q5 -6 14 -7q-3 -11 -5 -15l-1 -1l30 -29zM532 233q0 68 49 116t118 48q20 0 39 -4l-15 200q-1 16 -16 16h-431q-8 0 -15.5 -4.5t-8.5 -11.5l-40 -472q0 -8 5 -14q8 -7 11 -7
h373q-32 22 -50.5 57t-18.5 76zM619.5 546q16.5 0 28.5 -11.5t12 -27.5t-12 -27.5t-28.5 -11.5t-28 11.5t-11.5 27.5t11.5 27.5t28 11.5zM355.5 468q-16.5 0 -28 11.5t-11.5 27.5t11.5 27.5t28 11.5t28.5 -11.5t12 -27.5t-12 -27.5t-28.5 -11.5z" />
    <glyph glyph-name="uniE617" unicode="&#xe617;" horiz-adv-x="1000" 
d="M891 597l-61 -36q-13 -7 -27.5 -3t-22 16.5t-3.5 27t17 22.5l61 35q-45 64 -109 108l-35 -61q-7 -13 -21.5 -16.5t-27.5 3.5t-17 21.5t4 27.5l35 61q-70 33 -148 40v-71q0 -15 -10.5 -25.5t-25.5 -10.5t-25.5 10.5t-10.5 25.5v71q-78 -7 -148 -40l35 -61q8 -13 4 -27.5
t-17 -21.5t-27.5 -3.5t-21.5 16.5l-35 61q-64 -44 -109 -108l61 -35q13 -8 17 -22.5t-3.5 -27t-22 -16.5t-27.5 3l-61 36q-41 -88 -41 -184q0 -118 58 -217.5t157.5 -157t216.5 -57.5t216.5 57.5t157.5 157t58 217.5q0 96 -41 184zM749.5 268.5q-29.5 -50.5 -76 -85t-99 -49
t-110 -7.5t-108.5 36.5t-85.5 75.5t-48.5 99t-7.5 110.5t36 108t76 85.5t99 49t110 7t108.5 -36t85.5 -75.5t48.5 -99t7.5 -110.5t-36 -108.5zM652 598l-103 -173q-7 -13 -21.5 -17t-27.5 3.5t-17 22t4 27.5l103 173q-43 18 -90 18q-99 0 -169.5 -70.5t-70.5 -170
t70.5 -169.5t169.5 -70t169.5 70t70.5 170q0 55 -23.5 103.5t-64.5 82.5z" />
    <glyph glyph-name="uniE618" unicode="&#xe618;" horiz-adv-x="1000" 
d="M842 -19h-652q-37 0 -60 29t-18 70l75 506q3 26 26 44.5t52 18.5h42q4 93 62 146t145 53t145.5 -53t61.5 -146h46q29 0 52 -18.5t26 -44.5l75 -506q5 -41 -18 -70t-60 -29zM277 504q0 -21 15 -36t36.5 -15t36.5 15t15 36t-15 36t-36.5 15t-36.5 -15t-15 -36zM514.5 810
q-73.5 0 -122 -41.5t-52.5 -119.5h349q-4 78 -52.5 119.5t-122 41.5zM706 555q-21 0 -36 -15t-15 -36t15 -36t36 -15t36 15t15 36t-15 36t-36 15z" />
    <glyph glyph-name="uniE619" unicode="&#xe619;" horiz-adv-x="1000" 
d="M754 445q7 7 9 17q3 21 -17 31l-194 98l34 214q3 21 -15 30q-17 8 -33 -8l-150 -148l-201 96q-22 11 -37 -4v-1q-15 -15 -4 -36l96 -201l-149 -145q-16 -17 -8 -33q9 -17 30 -14l216 33l100 -193q10 -19 32 -16q10 1 17 8t8 17l34 213l215 34q10 1 17 8zM614 380l-63 -8
l-9 -54l292 -328q45 12 67 34q13 12 24 31.5t16 32.5l5 13z" />
    <glyph glyph-name="uniE61A" unicode="&#xe61a;" horiz-adv-x="1000" 
d="M930 352l-441 441q-19 19 -46 21l-238 22q-11 1 -24.5 -4t-21.5 -13l-54 -54q-8 -8 -13 -21.5t-4 -24.5l21 -239q3 -27 22 -46l440 -440q8 -8 19 -8t19 8l321 320q8 8 8 19t-8 19zM272 650q-17 -17 -41.5 -17t-41.5 17t-17 41.5t17 41.5t41.5 17t41.5 -17t17 -41.5
t-17 -41.5z" />
    <glyph glyph-name="uniE61B" unicode="&#xe61b;" 
d="M1024 405l-397 372l-66 -62l331 -310l-331 -310l66 -62l331 310zM397 467l-331 310l-66 -62l331 -310l-331 -310l66 -62l331 310l66 62z" />
    <glyph glyph-name="uniE61C" unicode="&#xe61c;" 
d="M524 353l2 2q12 12 12 29.5t-12 29.5l-389 389q-13 12 -30 12t-29.5 -12t-12.5 -29.5t13 -29.5l359 -360l-356 -355q-13 -14 -14.5 -32.5t11 -30.5t31 -11t31.5 14l382 382zM944 414l-389 389q-13 12 -30 12t-29.5 -12t-12.5 -29.5t12 -29.5l360 -360l-356 -355
q-14 -14 -15 -32.5t11.5 -30.5t30.5 -11t32 14l382 382l2 2l2 2q12 12 12 29.5t-12 29.5z" />
    <glyph glyph-name="uniE61D" unicode="&#xe61d;" 
d="M293.5 146q-22.5 0 -38.5 -16.5t-16 -39t16 -38.5t38.5 -16t38.5 16t16 38.5t-16 39t-38.5 16.5zM629 171q-31 0 -53 -22t-22 -53t22 -53.5t53 -22.5t53.5 22.5t22.5 53.5t-22.5 53t-53.5 22zM964 688v14q0 16 -12 27t-29 11h-161h-6q-27 -2 -35 -26l-46 -132h-576
q-16 0 -27.5 -11t-11.5 -27v-12q0 -16 11.5 -27.5t27.5 -11.5h544l-19 -54h-484q-16 0 -27.5 -11.5t-11.5 -27.5v-12q0 -16 11.5 -27t27.5 -11h453l-20 -56h-366q-17 0 -28.5 -11t-11.5 -27v-12q0 -16 11.5 -27.5t28.5 -11.5h396h3q13 -1 24.5 6.5t15.5 20.5l147 418h130
q17 0 29 11t12 27z" />
    <glyph glyph-name="uniE61E" unicode="&#xe61e;" 
d="M873 140zM744 703q-9 5 -15 5q-11 0 -18.5 -7.5t-7.5 -17.5q0 -16 15 -24q72 -42 115 -115t43 -159.5t-43 -160t-115 -115.5q-16 -8 -16 -24q0 -10 7.5 -17.5t18.5 -7.5q7 0 15 5q84 49 134 134t50 185q0 101 -49.5 185.5t-133.5 133.5zM774 384q0 59 -29.5 109t-78.5 78
q-9 5 -14 5q-11 0 -18.5 -7.5t-7.5 -18.5q0 -15 12 -23q39 -21 61.5 -59.5t22.5 -83.5q0 -46 -23.5 -84.5t-62.5 -60.5q-13 -7 -13 -22q0 -11 8 -18.5t18 -7.5l14 4q50 28 80.5 78.5t30.5 110.5zM541.5 771.5q-17.5 8.5 -33.5 -3.5q-32 -27 -97 -75q-94 -69 -119 -77h-111
h-1h-1h-56q-11 0 -18.5 -8t-7.5 -18v-412q0 -11 7.5 -18.5t18.5 -7.5h189q24 -9 108 -77q9 -7 19 -15.5t18 -15.5t16 -13.5t14 -11.5t10.5 -9t7 -6t2.5 -3q9 -7 21 -7q6 0 13 2q18 9 18 29v132q1 4 1 8v33v83v113q0 61 -0.5 122.5t-0.5 112.5v83v31q0 20 -17.5 28.5z
M508 170v-95q-25 21 -45 37q-71 58 -101.5 75t-46.5 17h-1h-1h-143q-13 0 -17.5 5t-4.5 18v316q0 11 3 15.5t13 4.5h129q16 0 48 17.5t109 73.5q28 21 58 43v-521v-6z" />
    <glyph glyph-name="uniE61F" unicode="&#xe61f;" 
d="M697 760q-32 0 -62 -12.5t-53.5 -34t-39.5 -40t-29 -38.5q-13 20 -28.5 38.5t-39 40t-53.5 34t-62 12.5q-98 0 -167.5 -76.5t-69.5 -184.5q0 -51 30 -114t72 -101q54 -70 176 -173t143 -103q22 0 141.5 101.5t175.5 173.5q42 38 72 101.5t30 114.5q0 108 -69 184.5
t-167 76.5zM878 499q0 -41 -25.5 -93t-60.5 -83q-1 -2 -3 -4q-46 -60 -127 -130.5t-148 -118.5q-193 141 -276 250q-2 1 -4 3q-34 31 -59.5 83t-25.5 93q0 85 53 145.5t128 60.5q45 0 88 -41t70 -98q7 -14 25 -14t26 14q27 57 70 98t88 41q75 0 128 -60.5t53 -145.5z" />
    <glyph glyph-name="uniE620" unicode="&#xe620;" 
d="M808 683q-81 81 -189.5 109.5t-217.5 0t-190 -109.5t-110 -190t0 -218t110 -190t190 -109.5t217.5 0t189.5 109.5t110 190t0 218t-110 190zM765 128q-69 -69 -162 -93.5t-186.5 0t-163 94t-94 162.5t0 186t94 162.5t163 94.5t186.5 0t162 -94q52 -52 79.5 -119.5
t27.5 -136.5t-27.5 -136.5t-79.5 -119.5zM500.5 210q-15.5 0 -26 -11t-10.5 -26t10.5 -26t26 -11t26.5 11t11 26t-11 26t-26.5 11zM506 631q-54 0 -98 -28.5t-61 -75.5q-12 -31 -5 -59q2 -10 11.5 -16t19.5 -3q11 2 16.5 11t3.5 20q-3 13 3 29q10 29 39.5 49t70.5 20
q51 0 83.5 -23.5t32.5 -61.5q0 -26 -14 -40t-50 -32q-19 -10 -29.5 -16.5t-25.5 -18.5t-22 -28.5t-7 -37.5v-54q0 -11 7.5 -18.5t18.5 -7.5t19 7.5t8 18.5v54q0 17 12 28t43 26q21 11 32.5 18t28 21.5t24.5 34t8 45.5q0 61 -47 99.5t-122 38.5z" />
    <glyph glyph-name="uniE621" unicode="&#xe621;" 
d="M810.5 682.5q-60.5 60.5 -139.5 92t-159 31.5t-159 -31.5t-139.5 -92t-92 -139.5t-31.5 -159t31.5 -159t92.5 -139q81 -81 189.5 -110t217 0t189.5 110q61 60 92.5 139t31.5 159t-31.5 159t-92 139.5zM767.5 128.5q-69.5 -69.5 -162.5 -94t-186 0t-162.5 94t-94 162.5
t0 186t94 162.5t162.5 94t186 0t162.5 -94t94 -162.5t0 -186t-94 -162.5zM721 375h-206v227q0 12 -8 20t-19 8t-19.5 -8t-8.5 -20v-235q0 -21 13 -34q12 -13 35 -13h213q12 0 20 8t8 19t-8 19t-20 9z" />
    <glyph glyph-name="uniE622" unicode="&#xe622;" 
d="M809 681q-60 60 -138.5 91.5t-158.5 31.5t-158.5 -31.5t-138.5 -91.5t-91.5 -138.5t-31.5 -158.5t31.5 -158.5t91.5 -138.5t138.5 -91.5t158.5 -31.5t158.5 31.5t138.5 91.5t91.5 138.5t31.5 158.5t-31.5 158.5t-91.5 138.5zM766 130q-69 -69 -161.5 -93.5t-185 0
t-161.5 93.5t-93.5 161.5t0 185t93.5 161.5t161.5 93.5t185 0t161.5 -93.5t93.5 -161.5t0 -185t-93.5 -161.5zM514 598q-19 0 -32 -13.5t-13 -32t13 -32t32 -13.5t32 13.5t13 32t-13 32t-32 13.5zM514 469q-14 0 -24 -10t-10 -24v-268q0 -14 10 -24t24 -10t24 10t10 24v268
q0 14 -10 24t-24 10z" />
    <glyph glyph-name="uniE623" unicode="&#xe623;" horiz-adv-x="1025" 
d="M512 819q-89 0 -169.5 -34.5t-138.5 -92.5t-92.5 -138.5t-34.5 -169.5t34.5 -169.5t92.5 -138.5t138.5 -92.5t169.5 -34.5t169.5 34.5t138.5 92.5t92.5 138.5t34.5 169.5t-34.5 169.5t-92.5 138.5t-138.5 92.5t-169.5 34.5zM618 379v-238h-201v238h-158l259 271l258 -271
h-158z" />
    <glyph glyph-name="uniE624" unicode="&#xe624;" 
d="M512 832q-91 0 -174 -35.5t-143 -95.5t-95.5 -143t-35.5 -174t35.5 -174t95.5 -143t143 -95.5t174 -35.5t174 35.5t143 95.5t95.5 143t35.5 174t-35.5 174t-95.5 143t-143 95.5t-174 35.5zM630 96q-42 0 -71.5 30t-29.5 72q0 6 1 12l-96 81q-20 -9 -40 -9q-43 0 -72.5 30
t-29.5 72t29.5 72t72.5 30q16 0 32 -6l74 69q-5 14 -5 30q0 38 27.5 65.5t66 27.5t65.5 -27.5t27 -66t-27 -65.5t-66 -27q-19 0 -36 7l-68 -63q11 -22 11 -46q0 -20 -8 -39l81 -67q27 21 62 21q42 0 72 -29.5t30 -71.5t-30 -72t-72 -30z" />
  </font>
</defs>
</svg>
